<?xml version="1.0" encoding="utf-8"?>
<!-- Generator: Adobe Illustrator 19.1.0, SVG Export Plug-In . SVG Version: 6.00 Build 0)  -->
<svg version="1.1" id="Layer_1" xmlns="http://www.w3.org/2000/svg" xmlns:xlink="http://www.w3.org/1999/xlink" x="0px" y="0px"
	 viewBox="98.7 344.6 542.7 105.3" style="enable-background:new 98.7 344.6 542.7 105.3;" xml:space="preserve">
<style type="text/css">
	.st0{fill:#FFFFFF;}
	.st1{fill:#FFF500;}
</style>
<g>
	<path d="M637,371.6c-0.4-0.8-1-1.4-1.7-1.9c-0.3-0.3-0.6-0.5-0.9-0.7c-0.3-0.3-0.6-0.5-0.9-0.7c-0.3-0.3-0.6-0.5-0.9-0.7
		c-0.3-0.3-0.6-0.5-0.9-0.7c-0.3-0.3-0.6-0.5-0.9-0.7c-0.3-0.3-0.6-0.5-0.9-0.7c-0.3-0.3-0.6-0.5-0.9-0.7c-0.3-0.3-0.6-0.5-0.9-0.7
		c-0.8-0.9-2-1.4-3.2-1.4l-12.9,0.1c-1.6,0-3.1,0.9-3.9,2.3l-1.7,2.9l0,0c-0.3-0.3-0.6-0.5-0.9-0.7c-0.3-0.3-0.6-0.5-0.9-0.7
		c-0.3-0.3-0.6-0.5-0.9-0.7c-0.3-0.3-0.6-0.5-0.9-0.7c-0.3-0.3-0.6-0.5-0.9-0.7c-0.8-0.9-2-1.4-3.2-1.4l-12.5,0.1
		c-1,0-1.9,0.4-2.7,0.9c-0.8-0.6-1.7-0.9-2.7-0.9l-11.8,0.1c-1.8,0-3.4,1.1-4.1,2.8l-4.5,10.4c-0.7-0.7-1.4-1.4-2.2-2
		c-0.3-0.3-0.6-0.5-0.9-0.7c-0.3-0.3-0.6-0.5-0.9-0.7c-0.3-0.3-0.6-0.5-0.9-0.7c-0.3-0.3-0.6-0.5-0.9-0.7c-0.3-0.3-0.6-0.5-0.9-0.7
		c-0.3-0.3-0.6-0.5-0.9-0.7c-0.3-0.3-0.6-0.5-0.9-0.7c-0.3-0.3-0.6-0.5-0.9-0.7c-4-3.4-9.4-5.1-15.9-5.1c-1,0-1.8,0-2.3,0.1
		c-0.1,0-0.2,0-0.3,0l-8.2,0.1c-2.2,0-4.1,1.7-4.5,3.9l-0.6,3.5c-0.3-0.2-0.5-0.4-0.8-0.6c-0.3-0.3-0.6-0.5-0.9-0.7
		c-0.3-0.3-0.6-0.5-0.9-0.7c-0.3-0.3-0.6-0.5-0.9-0.7c-0.3-0.3-0.6-0.5-0.9-0.7c-3.3-2.9-7.7-4.4-12.6-4.4H502
		c-4.3,0-9,1.3-13.3,4.2c-0.2-0.1-0.3-0.3-0.5-0.4c-0.3-0.3-0.6-0.5-0.9-0.7c-0.3-0.3-0.6-0.5-0.9-0.7c-0.9-0.9-2-1.4-3.2-1.4
		c0,0-12.5,0.1-20.4,0.2l0.2-0.9c0.3-1.9-0.6-3.9-2.2-4.9l0,0c-0.3-0.3-0.6-0.5-0.9-0.7l0,0c-0.3-0.3-0.6-0.5-0.9-0.7l0,0
		c-0.3-0.3-0.6-0.5-0.9-0.7l0,0c-0.3-0.3-0.6-0.5-0.9-0.7l0,0c-0.3-0.3-0.6-0.5-0.9-0.7l0,0c-0.3-0.3-0.6-0.5-0.9-0.7l0,0
		c-0.3-0.3-0.6-0.5-0.9-0.7l0,0c-0.3-0.3-0.6-0.5-0.9-0.7l0,0c-0.3-0.3-0.6-0.5-0.9-0.7c-4.9-2.9-10.1-4.4-15.9-4.4
		c-0.2,0-0.4,0-0.5,0c-6,0.1-11.5,1.9-16.2,5.1c-0.3-0.3-0.5-0.5-0.9-0.7c-0.3-0.3-0.6-0.5-0.9-0.7c-0.3-0.3-0.6-0.5-0.9-0.7
		c-0.9-0.9-2-1.4-3.2-1.4l-17,0.3c-1.9,0-3.6,1.3-4.3,3.2l-2,6c-0.4-0.7-0.9-1.2-1.6-1.6c-0.3-0.3-0.6-0.5-0.9-0.7
		c-0.3-0.3-0.6-0.5-0.9-0.7c-0.3-0.3-0.6-0.5-0.9-0.7c-0.3-0.3-0.6-0.5-0.9-0.7c-0.3-0.3-0.6-0.5-0.9-0.7c-0.3-0.3-0.6-0.5-0.9-0.7
		c-0.3-0.3-0.6-0.5-0.9-0.7c-0.3-0.3-0.6-0.5-0.9-0.7c-0.8-0.9-2-1.4-3.2-1.4l-12.6,0.2c-1.9,0-3.5,1.2-4.2,3l-2.3,6.2
		c-0.4-0.7-1-1.3-1.6-1.7c-0.3-0.3-0.6-0.5-0.9-0.7c-0.3-0.3-0.6-0.5-0.9-0.7c-0.3-0.3-0.6-0.5-0.9-0.7c-0.3-0.3-0.6-0.5-0.9-0.7
		c-0.3-0.3-0.6-0.5-0.9-0.7c-0.3-0.3-0.6-0.5-0.9-0.7c-0.3-0.3-0.6-0.5-0.9-0.7c-0.3-0.3-0.6-0.5-0.9-0.7c-0.8-0.9-2-1.4-3.2-1.4
		l-15.8,0.2c-0.7,0-1.3,0.2-1.9,0.5c-0.6-0.3-1.2-0.4-1.8-0.4l-30.4,0.5c-0.8,0-1.6,0.2-2.2,0.6c-0.7-0.4-1.4-0.6-2.2-0.6l-14.8,0.2
		c-2.2,0-4.1,1.7-4.4,3.9l-0.8,4.9c-0.4-0.5-0.8-1-1.4-1.3c-0.3-0.3-0.6-0.5-0.9-0.7c-0.3-0.3-0.6-0.5-0.9-0.7
		c-0.3-0.3-0.6-0.5-0.9-0.7c-0.3-0.3-0.6-0.5-0.9-0.7c-0.3-0.3-0.6-0.5-0.9-0.7c-0.3-0.3-0.6-0.5-0.9-0.7c-0.3-0.3-0.6-0.5-0.9-0.7
		c-0.3-0.3-0.6-0.5-0.9-0.7c-0.8-0.9-2-1.4-3.2-1.4l-13.9,0.2c-2.2,0-4.1,1.7-4.4,4l-1.7,11.3c-0.7-0.4-1.5-0.6-2.3-0.6l-17.3,0.2
		c-0.5,0-1,0.1-1.5,0.3c-0.5-0.2-0.9-0.2-1.4-0.2l-8.5,0.1c-1.4,0-2.6,0.7-3.4,1.7c-2.6-1.5-5.4-2.3-8.5-2.3h-0.2
		c-3.9,0-7.5,1.5-10.5,4c-0.1-0.1-0.1-0.1-0.2-0.2c-0.1,0-0.1-0.1-0.2-0.1c-0.2-0.2-0.4-0.4-0.7-0.6c-2.8-1.9-6-2.9-9.3-2.9h-0.2
		c-3.3,0-6.4,1.1-9,2.9l0,0c-0.3-0.3-0.6-0.5-0.9-0.7c-0.9-0.9-2-1.4-3.2-1.4l-8.1,0.1c-1.6,0-3,0.9-3.8,2.2
		c-0.3-0.3-0.6-0.5-0.9-0.7c-0.9-0.9-2-1.4-3.2-1.4l-8,0.1c-2,0-3.7,1.4-4.3,3.3c-0.2-0.1-0.3-0.2-0.5-0.4c-0.3-0.3-0.6-0.5-0.9-0.7
		c-0.3-0.3-0.6-0.5-0.9-0.7c-0.8-0.9-2-1.4-3.2-1.4l-8.3,0.1c-1.9,0-3.6,1.2-4.2,3.1l-15.3,42.6c-0.5,1.4-0.3,3,0.5,4.3
		c0.4,0.6,0.9,1,1.4,1.4c0.3,0.3,0.6,0.5,0.9,0.7c0.3,0.3,0.6,0.5,0.9,0.7c0.3,0.3,0.6,0.5,0.9,0.7c0.3,0.3,0.6,0.5,0.9,0.7
		c0.3,0.3,0.6,0.5,0.9,0.7c0.3,0.3,0.6,0.5,0.9,0.7c0.3,0.3,0.6,0.5,0.9,0.7c0.3,0.3,0.6,0.5,0.9,0.7c0.8,0.9,2,1.4,3.2,1.4l7.7,0.1
		c1.9,0,3.7-1.3,4.3-3.1l0.2-0.6c0.1,0.1,0.2,0.1,0.3,0.2c0.3,0.3,0.6,0.5,0.9,0.7c0.3,0.3,0.6,0.5,0.9,0.7c0.3,0.3,0.6,0.5,0.9,0.7
		c0.8,0.8,1.9,1.4,3.2,1.4l8.4,0.1c1.2,0,2.4-0.5,3.2-1.4c2.3,1.4,5.3,2.1,8.8,2.2h0.3c5,0,9.1-1.3,12.1-3.9
		c0.2,0.2,0.5,0.4,0.8,0.6c0,0,0,0,0.1,0.1c2.8,2.5,6.8,3.4,9.6,3.4h0.2c4,0,7.6-1.3,10.6-3.6c0.1,0.1,0.2,0.2,0.3,0.3l0.1,0.1
		c2.8,2.5,6.8,3.4,9.7,3.4h0.2c3.7,0,7-1.1,9.8-2.9c0.1,0.1,0.3,0.2,0.4,0.3c0.3,0.3,0.6,0.5,0.9,0.7c0.8,0.9,2,1.4,3.2,1.4l8.4,0.1
		c0.5,0,1-0.1,1.4-0.2c0.5,0.2,1,0.3,1.5,0.3c0,0,4.5,0,8.9,0.1l-0.4,2.6c-0.2,1.3,0.2,2.7,1,3.8c0.3,0.4,0.7,0.8,1.2,1
		c0.3,0.3,0.6,0.5,0.9,0.7c0.3,0.3,0.6,0.5,0.9,0.7c0.3,0.3,0.6,0.5,0.9,0.7c0.3,0.3,0.6,0.5,0.9,0.7c0.3,0.3,0.6,0.5,0.9,0.7
		c0.3,0.3,0.6,0.5,0.9,0.7c0.3,0.3,0.6,0.5,0.9,0.7c0.3,0.3,0.6,0.5,0.9,0.7c0.8,0.9,2,1.4,3.2,1.4l14.3,0.2c2.2,0,4.2-1.7,4.5-4
		l0.7-4.5c0.4,0.6,0.9,1.1,1.5,1.5c0.3,0.3,0.6,0.5,0.9,0.7c0.3,0.3,0.6,0.5,0.9,0.7c0.3,0.3,0.6,0.5,0.9,0.7
		c0.3,0.3,0.6,0.5,0.9,0.7c0.3,0.3,0.6,0.5,0.9,0.7c0.3,0.3,0.6,0.5,0.9,0.7c0.3,0.3,0.6,0.5,0.9,0.7c0.3,0.3,0.6,0.5,0.9,0.7
		c0.8,0.8,1.9,1.4,3.1,1.4l13.9,0.2c0.8,0,1.5-0.2,2.2-0.6c0.7,0.4,1.4,0.6,2.2,0.6l30.3,0.5c2.2,0,4.1-1.7,4.5-3.9l1.7-10.4
		l0.2,3.6c0.1,1.6,1,3,2.2,3.8c0.3,0.3,0.6,0.5,0.9,0.7c0.3,0.3,0.6,0.5,0.9,0.7c0.3,0.3,0.6,0.5,0.9,0.7c0.3,0.3,0.6,0.5,0.9,0.7
		c0.3,0.3,0.6,0.5,0.9,0.7c0.3,0.3,0.6,0.5,0.9,0.7c0.3,0.3,0.6,0.5,0.9,0.7c0.3,0.3,0.6,0.5,0.9,0.7c0.8,0.8,1.9,1.4,3.2,1.4
		l13.5,0.2c1.9,0,3.6-1.2,4.3-3l4.8-12.6l0.2,4.8c0.1,1.6,0.9,3.1,2.2,3.9c0.3,0.3,0.6,0.5,0.9,0.7c0.3,0.3,0.6,0.5,0.9,0.7
		c0.3,0.3,0.6,0.5,0.9,0.7c0.3,0.3,0.6,0.5,0.9,0.7c0.3,0.3,0.6,0.5,0.9,0.7c0.3,0.3,0.6,0.5,0.9,0.7c0.3,0.3,0.6,0.5,0.9,0.7
		c0.3,0.3,0.6,0.5,0.9,0.7c0.8,0.8,1.9,1.4,3.2,1.4l13.8,0.2c1.9,0,3.6-1.2,4.3-3l3.6-9.5c0.2,1,0.8,1.9,1.6,2.5
		c0.2,0.2,0.5,0.4,0.7,0.5c0.1,0.1,0.1,0.1,0.2,0.2c0.2,0.2,0.5,0.4,0.7,0.5c0.1,0.1,0.1,0.1,0.2,0.2c0.2,0.2,0.5,0.4,0.7,0.5
		c0.1,0.1,0.1,0.1,0.2,0.2c0.2,0.2,0.5,0.4,0.7,0.5c0.1,0.1,0.1,0.1,0.2,0.2c0.2,0.2,0.5,0.4,0.7,0.5c0.1,0.1,0.1,0.1,0.2,0.2
		c0.2,0.2,0.5,0.4,0.7,0.5c0.1,0.1,0.1,0.1,0.2,0.2c0.2,0.2,0.5,0.4,0.7,0.5c0.1,0.1,0.1,0.1,0.2,0.2c0.2,0.2,0.5,0.4,0.7,0.5
		c0.1,0.1,0.1,0.1,0.2,0.2c0.2,0.2,0.5,0.4,0.7,0.5c0.1,0.1,0.1,0.1,0.2,0.2c4.6,3.7,11.3,5.1,16.1,5.2c0.2,0,0.4,0,0.6,0l0,0
		c14.3,0,25.6-8.2,30.3-21.3c0.2,0.2,0.5,0.4,0.7,0.5c0.3,0.3,0.6,0.5,0.9,0.7c0.3,0.3,0.6,0.5,0.9,0.7c0.3,0.3,0.6,0.5,0.9,0.7
		c0.3,0.3,0.6,0.5,0.9,0.7c0.8,0.9,2,1.4,3.2,1.4l10.3,0.1c2.2,0,4.1-1.6,4.5-3.9l1.1-6.4c0.4,0.4,0.9,0.7,1.3,1.1
		c0.3,0.3,0.6,0.5,0.9,0.7c0.3,0.3,0.6,0.5,0.9,0.7c0.3,0.3,0.6,0.5,0.9,0.7c0.3,0.3,0.6,0.5,0.9,0.7c0.3,0.3,0.6,0.5,0.9,0.7
		c0.3,0.3,0.6,0.5,0.9,0.7c0.3,0.3,0.6,0.5,0.9,0.7c0.3,0.3,0.6,0.5,0.9,0.7c3.3,2.8,7.6,4.4,12.4,4.4h0.2c4.9,0,10.2-1.6,14.9-5.2
		c0.2,0.1,0.3,0.3,0.5,0.4c0.3,0.3,0.6,0.5,0.9,0.7c0.3,0.3,0.6,0.5,0.9,0.7c0.3,0.3,0.6,0.5,0.9,0.7c0.3,0.3,0.6,0.5,0.9,0.7
		c0.8,0.9,2,1.4,3.2,1.4l10,0.1c6,0,11.2-1.2,15.5-3.4c0,0,0.1,0,0.1,0.1c0.3,0.3,0.6,0.5,0.9,0.7c0.3,0.3,0.6,0.5,0.9,0.7
		c0.3,0.3,0.6,0.5,0.9,0.7c0.8,0.9,2,1.4,3.2,1.4l10.9,0.1c1.8,0,3.5-1.1,4.2-2.9l1.4-3.5l0,0c0.3,0.3,0.6,0.5,0.9,0.7
		c0.3,0.3,0.6,0.5,0.9,0.7c0.3,0.3,0.6,0.5,0.9,0.7c0.3,0.3,0.6,0.5,0.9,0.7c0.3,0.3,0.6,0.5,0.9,0.7c0.3,0.3,0.6,0.5,0.9,0.7
		c0.3,0.3,0.6,0.5,0.9,0.7c0.8,0.8,1.9,1.4,3.2,1.4l12,0.1c1,0,1.9-0.3,2.7-0.9c0.8,0.6,1.7,0.9,2.7,1l11.4,0.1
		c2.2,0,4.1-1.6,4.5-3.9l4.2-23.7l17.7-26.4C637.7,375.1,637.8,373.2,637,371.6z"/>
	<g>
		<path class="st0" d="M129.4,371.8l3.3,42.9l-8.4-0.1l-0.4-7.2H116l-2.5,7.2l-7.7-0.1l15.3-42.6L129.4,371.8z M123.4,389.3l0.1-6.5
			h-0.1l-1.8,6.5l-3.3,11.4h5.5L123.4,389.3z"/>
		<path class="st0" d="M147.3,371.6l-4.1,28c-0.5,3.3-1.6,8.2,2.7,8.2c3.9,0,4.4-3.1,4.9-6.3l4.4-29.9l8.1-0.1l-4.7,31.7
			c-0.7,4.6-2.3,12.4-13.9,12.3c-7.4-0.1-11.3-3.8-10.1-11.8l4.7-32L147.3,371.6z"/>
		<path class="st0" d="M182.3,381.2c-1.4-1.5-3.3-2.8-5.5-2.8c-2.5,0-4.4,1.6-4.8,4.3c-1.1,7.2,11.4,7.6,9.6,19.4
			c-1.2,7.8-6.3,13.6-14,13.5c-2.3,0-5-0.8-6.6-2.3l1.2-8.2c1.7,1.4,3.4,2.3,5.8,2.3c2.6,0,5-1.8,5.4-4.7c0.5-3.4-1.8-4.6-3.9-6.4
			c-4.2-3.4-6.6-6.6-5.6-12.9c1-6.9,5.7-12.9,12.7-12.9c2.6,0,4.9,0.7,7,2.1L182.3,381.2z"/>
		<path class="st0" d="M203.5,381.1c-1.5-1.5-3.3-2.8-5.6-2.8c-2.6,0-4.4,1.7-4.8,4.4c-1.1,7.2,11.6,7.6,9.7,19.6
			c-1.2,7.9-6.4,13.7-14.2,13.6c-2.3,0-5.1-0.8-6.8-2.3l1.2-8.3c1.7,1.4,3.5,2.3,5.9,2.4c2.7,0,5.1-1.8,5.5-4.8
			c0.5-3.4-1.9-4.7-3.9-6.4c-4.3-3.4-6.7-6.6-5.7-13c1-6.9,5.8-13,12.9-13c2.7,0,5,0.7,7.1,2.1L203.5,381.1z"/>
		<path class="st0" d="M218.2,371l-6.8,44.4l-8.4-0.1l6.7-44.3H218.2z"/>
		<path class="st0" d="M238.4,370.8l-1.3,8.3l-8.7,0.1l-1.5,9.7h7.6l-1.3,8.3h-7.6l-1.5,10.1l8.8,0.1l-1.3,8.3l-17.3-0.2l6.8-44.5
			L238.4,370.8z"/>
		<path class="st0" d="M482.9,368.5l-1.6,9.2h-8.2l-6.7,40l-10.3-0.1l6.7-39.8h-8l1.5-9.1L482.9,368.5z"/>
		<path class="st0" d="M516.3,393.2c-3.2,18.7-13.8,25.7-23.2,25.6c-9.3-0.1-17.4-7.1-14.3-25.6s13.6-25.6,23-25.6
			C511.3,367.5,519.5,374.5,516.3,393.2z M494.6,409.7c7,0,9.7-12.5,10.3-16.5c0.8-4.4,2.3-16.6-4.7-16.5c-7,0-9.5,12.1-10.3,16.5
			C489.3,397.2,487.6,409.7,494.6,409.7z"/>
		<path class="st0" d="M515.5,418.2l8.6-50l8.2-0.1c1.9,0,25.2-2.8,20.3,25.5c-2.5,14.4-10.4,24.8-27.5,24.7L515.5,418.2z
			 M541.7,393.6c1.1-6.4,0.7-16.6-8.3-16.5l-5.6,32.4C536.4,409.9,540.6,399.9,541.7,393.6z"/>
		<path class="st0" d="M580.6,367.7l4.6,51.2l-11.9-0.1l-0.6-8.6l-11.2-0.1l-3.5,8.5l-10.9-0.1l21.8-50.7L580.6,367.7z M572,388.6
			l0.1-7.7H572l-2.5,7.7l-4.8,13.6h7.8L572,388.6z"/>
		<path class="st0" d="M598.5,367.5l3.5,14l0.4,2.5h0.2l2-3.8l7.4-12.8l12.9-0.1l-18.4,27.1l-4.4,24.7l-11.3-0.1l4.3-24.6l-9-26.7
			L598.5,367.5z"/>
	</g>
	<g>
		<path class="st1" d="M260.7,355.9l11.1,45l0.2-0.2c-0.3-3.6,0-7.5,0.6-11.3l5.3-33.8l14.7-0.2l-11.8,75.4l-13.8-0.2l-10.9-45.1
			l-0.2,0.2l-0.5,7.5l-0.4,3.1l-5.3,34.1l-14.2-0.2l11.4-74L260.7,355.9z"/>
		<path class="st1" d="M327.5,354.9l-2.3,14.2l-15.3,0.2l-2.6,16.6h13.5l-2.3,14.2h-13.4l-2.7,17.1l15.4,0.1l-2.3,14.1l-30.3-0.5
			l11.9-75.5L327.5,354.9z"/>
		<path class="st1" d="M347,354.6l0.7,36.9c0.1,5.4-0.6,11-1,16.4h0.2c1.6-5.4,2.9-10.9,4.9-16.4l13.9-37.1l12.5-0.2l1.5,53.9h0.2
			c1.4-5.5,2.4-10.9,4.3-16.4l12.5-37.8l17-0.3l-29.8,78.8l-13.7-0.2l-1.5-41.1c0.2-4.8,0.1-9.5,0.1-14.2h-0.2
			c-1.6,4.8-2.9,9.5-4.8,14.3L348.2,432l-13.5-0.2l-3.3-76.8L347,354.6z"/>
		<path class="st1" d="M447.3,371.2c-2.9-2.7-6.7-5-11.2-5c-5.1,0.1-8.8,3-9.6,7.9c-2.2,13.1,23,13.8,19.4,35.5
			c-2.4,14.2-12.7,24.8-28.2,24.5c-4.6-0.1-10.1-1.5-13.3-4.2l2.4-14.8c3.4,2.5,6.8,4.3,11.7,4.3c5.3,0.1,10-3.3,10.9-8.6
			c1-6.1-3.7-8.5-7.8-11.6c-8.4-6.1-13.3-12-11.3-23.5c2.1-12.5,11.4-23.5,25.6-23.7c5.4-0.1,9.9,1.2,14.1,3.7L447.3,371.2z"/>
	</g>
</g>
</svg>
